<svg id="Capa_1" enable-background="new 0 0 510 510" height="512" viewBox="0 0 510 510" width="512" xmlns="http://www.w3.org/2000/svg"><g><path d="m192.5 400h30v45h-30z" fill="#ffdb00"/><path d="m312.5 352.47 10.232 97.53h-78.152l15.13-100.83z" fill="#4bb9ec"/><path d="m380.32 450h-67.82v-97.53l52.94 3.31z" fill="#1982bf"/><path d="m492.5 195c0 99.41-80.59 180-180 180v-360c99.41 0 180 80.59 180 180z" fill="#d5e8fe"/><path d="m312.5 15v360c-99.41 0-180-80.59-180-180s80.59-180 180-180z" fill="#edf5ff"/><path d="m312.5 30v-30c-107.52 0-195 87.48-195 195s87.48 195 195 195v-30c-90.98 0-165-74.02-165-165s74.02-165 165-165z" fill="#00ddc1"/><path d="m507.5 195c0 107.52-87.48 195-195 195v-30c90.98 0 165-74.02 165-165s-74.02-165-165-165v-30c107.52 0 195 87.48 195 195z" fill="#00b5bc"/><path d="m312.5 60 12.77 60.099-12.77 123.171-1.56.1-59.67 72.71-11.21-7.12c-14.65-9.31-27.24-21.25-37.41-35.49-10.18-14.24-17.39-30.02-21.44-46.91l-2.36-9.83 22.22-15.87c15.24-10.88 33.18-16.96 51.9-17.56 5.32-.17 9.95-.57 14.13-1.23l7.21-15.45-24.75-91.82 12.31-4.98c16.1-6.52 33.13-9.82 50.63-9.82z" fill="#3b5a71"/><path d="m447.68 206.66-2.43 13.06c-3.17 17.07-9.56 33.2-18.98 47.95-9.41 14.74-21.37 27.32-35.52 37.38l-8.25 5.86-23.01-14.7c-15.78-10.08-28.11-24.47-35.65-41.61-1.95-4.45-3.87-8.29-5.84-11.68l-5.5.35v-183.27c17.5 0 34.53 3.3 50.63 9.82l9.37 3.79v27.31c0 18.72-5.49 36.86-15.88 52.44-2.9 4.36-5.23 8.29-7.11 12l7.67 12.8z" fill="#2f374f"/><path d="m312.5 430.05 17.845 79.95h-167.845v-13.325c0-36.733 33.64-66.625 75-66.625z" fill="#00ddc1"/><path d="m462.5 496.675v13.325h-150v-79.95h75c41.36 0 75 29.892 75 66.625z" fill="#00b5bc"/><g fill="#d5e8fe"><path d="m2.5 180h50v30h-50z"/><path d="m2.5 105.099h90v30h-90z"/><path d="m2.5 255h90v30h-90z"/><path d="m2.5 330h135v30h-135z"/><path d="m2.5 30h135v30h-135z"/></g><path d="m312.5 145 10.232 50-10.232 50c-27.57 0-50-22.43-50-50s22.43-50 50-50z" fill="#678d98"/><path d="m362.5 195c0 27.57-22.43 50-50 50v-100c27.57 0 50 22.43 50 50z" fill="#3b5a71"/></g></svg>